<?xml version="1.0" encoding="UTF-8"?>
<!DOCTYPE svg PUBLIC "-//W3C//DTD SVG 1.1//EN" "http://www.w3.org/Graphics/SVG/1.1/DTD/svg11.dtd">
<!-- Creator: CorelDRAW X5 -->
<svg xmlns="http://www.w3.org/2000/svg" xml:space="preserve" width="152.813mm" height="130mm" style="shape-rendering:geometricPrecision; text-rendering:geometricPrecision; image-rendering:optimizeQuality; fill-rule:evenodd; clip-rule:evenodd"
viewBox="0 0 15281 13000"
 xmlns:xlink="http://www.w3.org/1999/xlink">
 <defs>
  <style type="text/css">
   <![CDATA[
    .fil0 {fill:black}
   ]]>
  </style>
 </defs>
 <g id="Layer_x0020_1">
  <metadata id="CorelCorpID_0Corel-Layer"/>
  <path class="fil0" d="M10713 4388c0,104 -82,191 -186,191 -104,0 -191,-87 -191,-191 0,-104 87,-191 191,-191 104,0 186,87 186,191l0 0z"/>
  <path id="_1" class="fil0" d="M7635 1015c1850,0 3356,1512 3356,3373 0,1561 -1059,2871 -2489,3258l0 1042c1997,-404 3498,-2178 3498,-4301 0,-2423 -1954,-4388 -4366,-4388 -2112,0 -3875,1512 -4279,3515l1037 0 0 11c377,-1446 1686,-2511 3242,-2511l0 0 0 0z"/>
  <path id="_2" class="fil0" d="M6767 7646c-1152,-311 -2063,-1223 -2374,-2385l-1037 0c344,1725 1697,3084 3411,3427l0 -1042 0 0z"/>
  <path id="_3" class="fil0" d="M7635 1670c104,0 191,-87 191,-191 0,-104 -87,-186 -191,-186 -104,0 -186,82 -186,186 0,104 82,191 186,191l0 0z"/>
  <path id="_4" class="fil0" d="M4917 4339c0,93 -76,164 -169,164 -93,0 -169,-71 -169,-164 0,-93 76,-169 169,-169 93,0 169,76 169,169l0 0zm2150 5157l568 682 568 -682 0 -5681 -4895 0 -682 573 682 573 3760 0 0 4535 0 0zm437 -2369c0,-93 76,-169 169,-169 93,0 164,76 164,169 0,93 -71,169 -164,169 -93,0 -169,-76 -169,-169l0 0z"/>
  <path id="_5" class="fil0" d="M229 11903l890 0 0 -229 -890 0 0 229zm-229 -971l1119 0 0 -224 -1119 0 0 224zm229 486l890 0 0 -229 -890 0 0 229z"/>
  <polygon id="_6" class="fil0" points="1599,11903 1599,11073 2161,11903 2412,11903 2412,10708 2188,10708 2188,11537 1621,10708 1375,10708 1375,11903 "/>
  <polygon id="_7" class="fil0" points="3094,10708 2560,11903 2805,11903 3215,10986 3624,11903 3869,11903 3340,10708 "/>
  <polygon id="_8" class="fil0" points="4257,11903 4257,11073 4617,11603 4977,11073 4977,11903 5201,11903 5201,10708 4950,10708 4617,11199 4279,10708 4028,10708 4028,11903 "/>
  <path id="_9" class="fil0" d="M8328 11674l-890 0 0 229 890 0 0 -229zm-890 -742l890 0 0 -224 -890 0 0 224zm0 486l890 0 0 -229 -890 0 0 229z"/>
  <polygon id="_10" class="fil0" points="6964,10932 7193,10708 6298,10708 6298,11417 6964,11417 6964,11674 6522,11674 6298,11903 7193,11903 7193,11188 6522,11188 6522,10932 "/>
  <polygon id="_11" class="fil0" points="8814,11903 8814,11073 9174,11603 9534,11073 9534,11903 9758,11903 9758,10708 9507,10708 9174,11199 8836,10708 8585,10708 8585,11903 "/>
  <path id="_12" class="fil0" d="M10724 11188l-442 0 0 -257 442 0 0 257zm0 -480l-671 0 0 966 229 229 666 0 0 -971 -224 -224 0 0zm-442 709l442 0 0 257 -442 0 0 -257z"/>
  <polygon id="_13" class="fil0" points="11395,11903 11395,10708 11166,10932 11166,11903 "/>
  <polygon id="_14" class="fil0" points="12372,11903 12149,11674 11777,11674 11777,10708 11548,10932 11548,11903 "/>
  <polygon id="_15" class="fil0" points="13049,10708 12514,11903 12760,11903 13169,10986 13579,11903 13830,11903 13295,10708 "/>
  <polygon id="_16" class="fil0" points="14228,11903 14228,11073 14796,11903 15047,11903 15047,10932 15270,10932 15270,10708 14817,10708 14817,11537 14255,10708 14004,10708 14004,11903 "/>
  <polygon id="_17" class="fil0" points="14239,11903 14239,11073 14806,11903 15052,11903 15052,10932 15281,10932 15281,10708 14828,10708 14828,11537 14266,10708 14015,10708 14015,11903 "/>
  <polygon id="_18" class="fil0" points="14239,11903 14239,11073 14806,11903 15052,11903 15052,10932 15281,10932 15281,10708 14828,10708 14828,11537 14266,10708 14015,10708 14015,11903 "/>
  <path id="_19" class="fil0" d="M5927 12984l0 -458 338 0 0 82 -246 0 0 98 224 0 0 82 -224 0 0 115 257 0 0 82 -349 0 0 0zm742 -322c0,-27 -11,-44 -22,-55 -16,-11 -38,-16 -65,-16 -27,0 -49,5 -65,11 -11,11 -16,27 -16,44 0,11 0,27 11,33 11,11 33,16 60,27 22,5 49,11 71,16 27,5 44,11 60,22 11,5 22,11 33,16 5,5 16,11 22,22 5,5 11,16 16,33 0,11 5,22 5,38 0,27 -5,49 -16,66 -5,22 -22,33 -38,49 -16,11 -33,22 -55,27 -27,5 -49,5 -76,5 -27,0 -55,0 -76,-11 -27,-5 -44,-11 -60,-27 -16,-11 -33,-27 -44,-49 -5,-16 -11,-38 -11,-65l87 0c5,22 11,44 33,55 16,16 44,22 71,22 27,0 49,-5 65,-16 16,-11 27,-27 27,-49 0,-5 -5,-11 -5,-16 0,-5 -5,-11 -11,-16 -5,-5 -11,-11 -22,-16 -11,0 -22,-5 -38,-11 -27,-5 -49,-11 -71,-16 -16,-5 -38,-11 -49,-16 -27,-11 -49,-27 -60,-44 -11,-16 -22,-44 -22,-71 0,-22 5,-38 11,-60 11,-16 22,-27 33,-44 16,-11 33,-22 55,-27 16,-5 44,-11 71,-11 27,0 55,5 76,11 22,5 44,16 60,33 16,11 27,27 33,49 11,16 16,38 16,60l-93 0 0 0zm437 76c27,0 44,-5 55,-16 16,-16 22,-33 22,-49 0,-22 -5,-38 -22,-49 -11,-11 -27,-22 -55,-22l-93 0 0 136 93 0 0 0zm-191 246l0 -458 202 0c22,0 44,0 60,11 22,5 33,16 49,33 11,11 22,27 27,49 11,16 11,33 11,55 0,22 0,44 -11,60 -5,16 -16,33 -27,44 -16,11 -27,22 -49,33 -16,5 -38,11 -60,11l-104 0 0 164 -98 0 0 0zm699 -65c22,0 33,-5 49,-11 16,-5 27,-16 44,-27 11,-11 16,-27 22,-49 11,-22 11,-44 11,-71 0,-55 -11,-93 -33,-126 -22,-27 -49,-38 -93,-38 -38,0 -71,11 -93,38 -22,33 -33,71 -33,126 0,55 11,93 33,120 22,27 55,38 93,38l0 0 0 0zm0 82c-71,0 -126,-22 -164,-60 -33,-44 -55,-104 -55,-180 0,-38 5,-76 16,-104 5,-33 22,-60 38,-82 22,-22 44,-38 71,-49 27,-11 60,-16 93,-16 38,0 71,5 93,16 33,11 55,27 71,49 16,22 33,49 44,82 11,27 16,65 16,104 0,82 -22,142 -60,180 -38,38 -93,60 -164,60l0 0 0 0zm458 -398l0 126 120 0c27,0 44,-5 55,-16 11,-11 16,-27 16,-44 0,-22 -5,-33 -16,-44 -11,-16 -27,-22 -49,-22l-126 0 0 0zm175 382l0 -120c0,-22 -5,-33 -16,-44 -11,-11 -27,-16 -55,-16l-104 0 0 180 -93 0 0 -458 235 0c22,0 38,0 55,11 16,5 33,16 44,27 16,11 22,27 33,44 5,11 11,33 11,49 0,27 -11,49 -22,65 -11,22 -27,33 -49,44 22,5 33,16 44,27 5,16 11,33 11,60l0 131 -93 0 0 0zm371 0l0 -377 -136 0 0 -82 371 0 0 82 -136 0 0 377 -98 0zm622 -322c-5,-27 -11,-44 -27,-55 -16,-11 -38,-16 -65,-16 -27,0 -49,5 -60,11 -16,11 -22,27 -22,44 0,11 5,27 16,33 11,11 27,16 55,27 27,5 49,11 76,16 22,5 44,11 60,22 11,5 22,11 27,16 11,5 16,11 22,22 11,5 11,16 16,33 5,11 5,22 5,38 0,27 -5,49 -11,66 -11,22 -22,33 -38,49 -16,11 -38,22 -60,27 -22,5 -44,5 -71,5 -33,0 -55,0 -82,-11 -22,-5 -44,-11 -60,-27 -16,-11 -27,-27 -38,-49 -11,-16 -16,-38 -16,-65l93 0c0,22 11,44 27,55 22,16 44,22 76,22 27,0 49,-5 65,-16 16,-11 22,-27 22,-49 0,-5 0,-11 0,-16 -5,-5 -11,-11 -16,-16 -5,-5 -11,-11 -16,-16 -11,0 -22,-5 -38,-11 -27,-5 -55,-11 -71,-16 -22,-5 -38,-11 -55,-16 -22,-11 -44,-27 -55,-44 -16,-16 -22,-44 -22,-71 0,-22 5,-38 11,-60 5,-16 16,-27 33,-44 11,-11 27,-22 49,-27 22,-5 49,-11 76,-11 27,0 55,5 76,11 22,5 44,16 55,33 16,11 27,27 38,49 5,16 11,38 11,60l-87 0 0 0z"/>
 </g>
</svg>
